<?xml version="1.0" encoding="UTF-8"?><svg id="Layer_2" xmlns="http://www.w3.org/2000/svg" xmlns:xlink="http://www.w3.org/1999/xlink" viewBox="0 0 1126.37 432.97"><defs><style>.cls-1{fill:url(#linear-gradient);}.cls-2{fill:#4d4c4d;}.cls-3{fill:url(#linear-gradient-2);}</style><linearGradient id="linear-gradient" x1="0" y1="159.17" x2="278.7" y2="159.17" gradientUnits="userSpaceOnUse"><stop offset="0" stop-color="#339347"/><stop offset="0" stop-color="#339346"/><stop offset=".24" stop-color="#4da446"/><stop offset=".44" stop-color="#5daf46"/><stop offset=".6" stop-color="#63b346"/></linearGradient><linearGradient id="linear-gradient-2" x1="79.41" y1="178.31" x2="358.11" y2="178.31" gradientUnits="userSpaceOnUse"><stop offset=".31" stop-color="#faa819"/><stop offset=".56" stop-color="#f68f1e"/><stop offset=".82" stop-color="#f37b22"/><stop offset="1" stop-color="#f37424"/></linearGradient></defs><g id="Layer_1-2"><path class="cls-2" d="m484.54,93.47c-5.48,4.51-8.22,10.47-8.22,17.9s3.35,13.34,10.05,17.72c6.7,4.38,22.16,9.56,46.41,15.53,24.24,5.97,43.06,14.92,56.46,26.86,13.39,11.94,20.1,29.36,20.1,52.26s-8.59,41.47-25.76,55.72c-17.17,14.25-39.77,21.38-67.78,21.38-40.44,0-76.86-14.98-109.26-44.94l33.98-41.66c27.53,24.12,52.98,36.18,76.37,36.18,10.47,0,18.69-2.25,24.67-6.76,5.97-4.51,8.95-10.6,8.95-18.27s-3.17-13.76-9.5-18.27c-6.34-4.5-18.88-9.07-37.64-13.7-29.72-7.06-51.47-16.26-65.23-27.59-13.77-11.33-20.65-29.11-20.65-53.35s8.71-42.94,26.13-56.09c17.41-13.15,39.16-19.73,65.23-19.73,17.05,0,34.1,2.92,51.16,8.77,17.05,5.85,31.91,14.13,44.58,24.85l-28.87,41.66c-22.17-16.81-45.07-25.21-68.7-25.21-9.5,0-16.99,2.25-22.47,6.76Z"/><path class="cls-2" d="m852.13,65.33c17.91,15.23,26.86,38.61,26.86,70.16s-9.2,54.63-27.59,69.25c-18.4,14.61-46.47,21.93-84.23,21.93h-33.99v71.25h-57V42.49h90.26c39.22,0,67.78,7.62,85.69,22.84Zm-41.84,100.49c6.82-7.67,10.23-18.88,10.23-33.62s-4.45-25.21-13.34-31.42c-8.9-6.21-22.72-9.32-41.47-9.32h-32.52v85.87h38.37c19,0,31.91-3.84,38.73-11.51Z"/><path class="cls-2" d="m1001.59,93.47c-5.48,4.51-8.22,10.47-8.22,17.9s3.35,13.34,10.05,17.72c6.7,4.38,22.16,9.56,46.41,15.53,24.24,5.97,43.05,14.92,56.45,26.86,13.4,11.94,20.1,29.36,20.1,52.26s-8.59,41.47-25.76,55.72c-17.18,14.25-39.77,21.38-67.79,21.38-40.44,0-76.86-14.98-109.26-44.94l33.98-41.66c27.53,24.12,52.99,36.18,76.37,36.18,10.47,0,18.69-2.25,24.66-6.76,5.97-4.51,8.95-10.6,8.95-18.27s-3.17-13.76-9.5-18.27c-6.34-4.5-18.88-9.07-37.64-13.7-29.72-7.06-51.47-16.26-65.23-27.59-13.77-11.33-20.65-29.11-20.65-53.35s8.71-42.94,26.13-56.09c17.41-13.15,39.15-19.73,65.23-19.73,17.05,0,34.1,2.92,51.16,8.77,17.05,5.85,31.91,14.13,44.58,24.85l-28.87,41.66c-22.17-16.81-45.07-25.21-68.7-25.21-9.5,0-16.99,2.25-22.47,6.76Z"/><path class="cls-1" d="m79.79,46.45c-32.71,34.88-41.36,83.54-26.61,125.76-6.99-18.11-9.96-38.01-7.97-58.56,3.74-38.58,21.61-72.54,48.16-97.49-20.79,13.38-37.91,30.67-51.19,52.26-33.75,54.85-32.19,126.5,11.86,175.23,24.26,26.83,58.35,43.52,94.31,46.83C66.87,287.96,1.89,222.07,4.52,143.89c.13-4.05.43-8.14.86-12.11-3.07,11.74-4.88,23.87-5.3,36.45-2.7,80.28,62.94,147.46,146.59,150.05,70.61,2.18,129.69-50.97,131.97-118.72,1.57-46.77-29.41-87.34-73.34-101.56,38.33,15.1,57.17,58.37,42.07,96.7-17.89,45.42-69.2,67.74-114.62,49.85-53.81-21.19-81.57-84.33-62.62-138.97C93.64,37.79,153.64-9.79,254.39,16.31,233.29,5.41,210.16,0,187.06,0c-39.21,0-78.33,15.59-107.27,46.45"/><path class="cls-3" d="m79.47,137.93c-1.28,37.89,18.82,71.71,49.87,90.75-32.71-27.37-23.09-68.83-23.09-68.83h0c.8-5.72,2.26-11.45,4.47-17.07,17.89-45.42,69.21-67.74,114.63-49.85,53.81,21.19,81.57,84.33,62.62,138.97-23.51,67.79-83.51,115.37-184.26,89.27,56.91,29.38,128.62,18.89,174.6-30.15,32.71-34.88,41.36-83.54,26.61-125.76,6.99,18.11,9.96,38.01,7.96,58.57-3.74,38.58-21.61,72.54-48.17,97.48,20.8-13.37,37.92-30.67,51.2-52.26,33.75-54.86,32.19-126.5-11.86-175.24-24.25-26.83-58.34-43.51-94.31-46.83,81.48,2.52,146.46,68.41,143.83,146.6-.13,4.04-.43,8.14-.86,12.11,3.07-11.73,4.87-23.87,5.3-36.46,2.7-80.28-62.93-147.46-146.59-150.04-1.4-.04-2.81-.07-4.21-.07-68.73,0-125.53,52.38-127.76,118.79"/><path class="cls-2" d="m0,425.8l5.82-7.24c3.18,2.77,7.04,5.35,11.77,5.35,3.79,0,6.09-1.9,6.09-4.67v-.07c0-2.37-1.35-3.86-8.12-6.43-8.39-3.25-13.6-6.43-13.6-14.55v-.14c0-8.26,6.36-13.87,15.5-13.87,5.55,0,10.96,1.9,15.29,5.82l-5.48,7.44c-2.98-2.44-6.43-4.4-10.08-4.4-3.38,0-5.48,1.69-5.48,4.13v.07c0,2.71,1.62,3.99,9,7.04,8.25,3.25,12.72,6.77,12.72,14.14v.13c0,8.8-6.7,14.21-15.9,14.21C11.5,432.77,5.21,430.67,0,425.8Z"/><path class="cls-2" d="m43.45,413.76v-28.96h9.81v29.03c0,6.7,3.18,10.01,8.25,10.01s8.26-3.25,8.26-9.81v-29.23h9.74v28.76c0,13.06-7.17,19.35-18.13,19.35s-17.93-6.36-17.93-19.15Z"/><path class="cls-2" d="m88.32,425.8l5.82-7.24c3.18,2.77,7.04,5.35,11.77,5.35,3.79,0,6.09-1.9,6.09-4.67v-.07c0-2.37-1.35-3.86-8.12-6.43-8.39-3.25-13.6-6.43-13.6-14.55v-.14c0-8.26,6.36-13.87,15.5-13.87,5.55,0,10.96,1.9,15.29,5.82l-5.48,7.44c-2.98-2.44-6.43-4.4-10.08-4.4-3.38,0-5.48,1.69-5.48,4.13v.07c0,2.71,1.62,3.99,9,7.04,8.25,3.25,12.72,6.77,12.72,14.14v.13c0,8.8-6.7,14.21-15.9,14.21-6.02,0-12.32-2.1-17.53-6.97Z"/><path class="cls-2" d="m140.43,393.86h-11.91v-9.07h33.56v9.07h-11.91v38.3h-9.74v-38.3Z"/><path class="cls-2" d="m180.64,384.52h9.34l16.98,47.64h-10.15l-3.52-10.29h-16.31l-3.45,10.29h-9.88l16.99-47.64Zm9.68,28.69l-5.14-15.43-5.21,15.43h10.35Z"/><path class="cls-2" d="m216.58,384.8h9.81v47.37h-9.81v-47.37Z"/><path class="cls-2" d="m239.59,384.8h9l18.13,27.61v-27.61h9.61v47.37h-8.39l-18.74-28.62v28.62h-9.61v-47.37Z"/><path class="cls-2" d="m302.6,384.52h9.34l16.98,47.64h-10.15l-3.52-10.29h-16.31l-3.45,10.29h-9.88l16.99-47.64Zm9.68,28.69l-5.14-15.43-5.21,15.43h10.35Z"/><path class="cls-2" d="m338.2,384.8h17.59c5.28,0,9.68,1.42,12.38,4.13,2.1,2.16,3.18,4.74,3.18,8.05v.2c0,5.55-3.05,8.53-6.43,10.35,5.08,1.96,8.46,5.08,8.46,11.3v.34c0,8.53-6.83,12.99-17.12,12.99h-18.07v-47.37Zm23.48,13.94c0-3.45-2.44-5.28-6.63-5.28h-7.31v10.69h6.83c4.33,0,7.1-1.76,7.1-5.34v-.07Zm-5.35,13.67h-8.59v11.1h8.8c4.4,0,7.17-1.9,7.17-5.55v-.07c0-3.38-2.5-5.48-7.38-5.48Z"/><path class="cls-2" d="m383.88,384.8h9.81v38.37h19.15v9h-28.96v-47.37Z"/><path class="cls-2" d="m422.8,384.8h30.52v8.86h-20.77v10.22h18.27v8.86h-18.27v10.56h21.04v8.86h-30.79v-47.37Z"/><path class="cls-2" d="m483.24,384.8h15.77c10.62,0,17.32,6.16,17.32,16.24v.13c0,10.9-7.78,16.38-17.73,16.58h-5.55v14.41h-9.81v-47.37Zm15.29,24.16c5.08,0,7.92-3.18,7.92-7.58v-.07c0-4.94-2.84-7.64-8.05-7.64h-5.34v15.29h5.48Z"/><path class="cls-2" d="m524.46,408.95v-.81c0-14.21,8.93-24.16,21.45-24.16s21.38,9.88,21.38,24.02v.81c0,14.14-8.93,24.16-21.45,24.16s-21.38-9.88-21.38-24.02Zm32.68-.2v-.47c0-9.34-4.74-15.23-11.3-15.23s-11.3,5.82-11.3,15.16v.47c0,9.34,4.81,15.23,11.37,15.23s11.23-5.82,11.23-15.16Z"/><path class="cls-2" d="m573.12,384.8h10.35l7.99,31.19,8.66-31.33h8.53l8.73,31.33,7.92-31.19h10.15l-13.53,47.64h-9l-8.66-30.11-8.66,30.11h-8.93l-13.53-47.64Z"/><path class="cls-2" d="m645.06,384.8h30.52v8.86h-20.77v10.22h18.27v8.86h-18.27v10.56h21.04v8.86h-30.79v-47.37Z"/><path class="cls-2" d="m686.96,384.8h17.79c5.48,0,9.88,1.56,12.86,4.53,2.57,2.57,3.99,6.29,3.99,10.96v.27c0,7.17-3.59,11.71-8.8,14.01l10.08,17.59h-11.23l-8.73-15.56h-6.16v15.56h-9.81v-47.37Zm17.05,23.14c5.01,0,7.71-2.84,7.71-7.1v-.07c0-4.74-2.91-7.1-7.92-7.1h-7.04v14.28h7.24Z"/><path class="cls-2" d="m747.87,425.8l5.82-7.24c3.18,2.77,7.04,5.35,11.77,5.35,3.79,0,6.09-1.9,6.09-4.67v-.07c0-2.37-1.35-3.86-8.12-6.43-8.39-3.25-13.6-6.43-13.6-14.55v-.14c0-8.26,6.36-13.87,15.5-13.87,5.55,0,10.96,1.9,15.29,5.82l-5.48,7.44c-2.98-2.44-6.43-4.4-10.08-4.4-3.38,0-5.48,1.69-5.48,4.13v.07c0,2.71,1.62,3.99,9,7.04,8.25,3.25,12.72,6.77,12.72,14.14v.13c0,8.8-6.7,14.21-15.9,14.21-6.02,0-12.31-2.1-17.53-6.97Z"/><path class="cls-2" d="m790.17,408.95v-.81c0-14.21,8.93-24.16,21.45-24.16s21.38,9.88,21.38,24.02v.81c0,14.14-8.93,24.16-21.45,24.16s-21.38-9.88-21.38-24.02Zm32.68-.2v-.47c0-9.34-4.73-15.23-11.3-15.23s-11.3,5.82-11.3,15.16v.47c0,9.34,4.81,15.23,11.37,15.23s11.23-5.82,11.23-15.16Z"/><path class="cls-2" d="m844.18,384.8h9.81v38.37h19.15v9h-28.96v-47.37Z"/><path class="cls-2" d="m881.34,413.76v-28.96h9.81v29.03c0,6.7,3.18,10.01,8.26,10.01s8.25-3.25,8.25-9.81v-29.23h9.74v28.76c0,13.06-7.17,19.35-18.13,19.35s-17.93-6.36-17.93-19.15Z"/><path class="cls-2" d="m938.73,393.86h-11.91v-9.07h33.56v9.07h-11.91v38.3h-9.75v-38.3Z"/><path class="cls-2" d="m970.74,384.8h9.81v47.37h-9.81v-47.37Z"/><path class="cls-2" d="m992.06,408.95v-.81c0-14.21,8.93-24.16,21.45-24.16s21.38,9.88,21.38,24.02v.81c0,14.14-8.93,24.16-21.45,24.16s-21.38-9.88-21.38-24.02Zm32.68-.2v-.47c0-9.34-4.73-15.23-11.3-15.23s-11.3,5.82-11.3,15.16v.47c0,9.34,4.81,15.23,11.37,15.23s11.23-5.82,11.23-15.16Z"/><path class="cls-2" d="m1046.07,384.8h9l18.14,27.61v-27.61h9.61v47.37h-8.39l-18.74-28.62v28.62h-9.61v-47.37Z"/><path class="cls-2" d="m1092.23,425.8l5.82-7.24c3.18,2.77,7.04,5.35,11.77,5.35,3.79,0,6.09-1.9,6.09-4.67v-.07c0-2.37-1.35-3.86-8.12-6.43-8.39-3.25-13.6-6.43-13.6-14.55v-.14c0-8.26,6.36-13.87,15.5-13.87,5.55,0,10.96,1.9,15.29,5.82l-5.48,7.44c-2.98-2.44-6.43-4.4-10.08-4.4-3.38,0-5.48,1.69-5.48,4.13v.07c0,2.71,1.62,3.99,9,7.04,8.25,3.25,12.72,6.77,12.72,14.14v.13c0,8.8-6.7,14.21-15.9,14.21-6.02,0-12.32-2.1-17.53-6.97Z"/></g></svg>